<svg version="1.1" id="Layer_1" xmlns="http://www.w3.org/2000/svg" xmlns:xlink="http://www.w3.org/1999/xlink" x="0px" y="0px"
	 viewBox="-404 206 1050 150" style="enable-background:new -404 206 1050 150;" xml:space="preserve">
<style type="text/css">
	.st0{fill:none;}
	.st1{fill:#FFFFFF;stroke:#EA7A06;stroke-width:2;stroke-linecap:round;stroke-linejoin:round;stroke-miterlimit:10;}
	.st2{fill:#EA7A06;}
	.st3{fill:none;stroke:#EA7A06;stroke-width:2;stroke-linecap:round;stroke-linejoin:round;stroke-miterlimit:10;}
	.st4{fill:#FFFFFF;stroke:#EA7A06;stroke-width:2;stroke-miterlimit:10;}
	.st5{fill:none;stroke:#EA7A06;stroke-width:3;stroke-miterlimit:10;}
	.st6{fill:#EA7A06;stroke:#EA7A06;stroke-width:2;stroke-miterlimit:10;}
	.st7{fill:none;stroke:#EA7A06;stroke-width:2;stroke-miterlimit:10;}
	.st8{opacity:0.2;fill:none;}
	.st9{fill:#FFFFFF;stroke:#EA7A06;stroke-width:3;stroke-miterlimit:10;}
	.st10{fill:none;stroke:#EA7A06;stroke-width:4;stroke-linecap:round;stroke-linejoin:round;}
	.st11{fill:none;stroke:#EA7A06;stroke-width:4;stroke-linecap:round;stroke-linejoin:round;stroke-dasharray:0,10;}
	.st12{fill:none;stroke:#EA7A06;stroke-width:4;stroke-linecap:round;stroke-linejoin:round;stroke-miterlimit:10;}
</style>
<rect x="496" y="206" class="st0" width="150" height="150"/>
<g>
	<g>
		<g>
			<g>
				<path class="st1" d="M555.4,235.5l-21.1,20.8v65.6c0,2.5,2,4.5,4.5,4.5h64.3c2.5,0,4.5-2,4.5-4.5v-81.8c0-2.5-2-4.5-4.5-4.5
					L555.4,235.5L555.4,235.5z"/>
			</g>
		</g>
	</g>
	<path class="st2" d="M579.6,286.7c5.2,3,8.7,8.6,8.7,15.1c0,9.6-7.8,17.4-17.4,17.4c0,0-0.1,0-0.1,0l2.3-3.6
		c6.7-1,11.8-6.8,11.8-13.8c0-5-2.6-9.4-6.6-11.8L579.6,286.7L579.6,286.7z M564.7,317.9c-6.5-2.5-11.1-8.8-11.1-16.2
		c0-7.8,5.2-14.4,12.2-16.6l-1.6,4.4c-4.3,2.4-7.2,6.9-7.2,12.2c0,5.8,3.6,10.8,8.7,12.9L564.7,317.9L564.7,317.9z M569.1,283.4
		l-7.9,21.4l10.2,0l-4.9,15.2h0.8l13.5-21l-8.6,0l6-15.6L569.1,283.4L569.1,283.4z"/>
	<path class="st1" d="M558.1,246.4l-2.6-10.9l-21.2,20.7l20.3-4.3C557.1,251.4,558.7,248.9,558.1,246.4z"/>
	<line class="st3" x1="568.6" y1="242.8" x2="602.6" y2="242.8"/>
	<line class="st3" x1="568.6" y1="249.8" x2="602.6" y2="249.8"/>
	<line class="st3" x1="539.6" y1="262.8" x2="602.6" y2="262.8"/>
	<line class="st3" x1="539.6" y1="269.8" x2="602.6" y2="269.8"/>
	<line class="st3" x1="539.6" y1="276.8" x2="602.6" y2="276.8"/>
</g>
<rect x="346" y="206" class="st0" width="150" height="150"/>
<g>
	<g>
		<path class="st2" d="M408,310.9c0.3-0.7,0.7-1.6,0.7-3.1c0-2.1-0.8-3.6-1.5-4.9c-0.6-1.1-1.1-2-1.1-3.2c0-1.7,0.3-2.6,1-3.8
			c0.5-0.9,0.2-2.1-0.7-2.7c-0.9-0.5-2.1-0.2-2.7,0.7c-1,1.7-1.6,3.2-1.6,5.7c0,2.2,0.9,3.8,1.5,5.1c0.6,1.1,1,2,1,3.1
			c0,0.7-0.1,0.9-0.4,1.5c-0.3,0.6-0.7,1.5-0.9,3l-2.9,0l4.9,8.4l4.8-8.5l-2.8,0C407.7,311.7,407.8,311.3,408,310.9z"/>
		<path class="st2" d="M423.5,310.9c0.3-0.7,0.7-1.6,0.7-3.1c0-2.1-0.8-3.6-1.5-4.9c-0.6-1.1-1.1-2-1.1-3.2c0-1.7,0.3-2.6,1-3.8
			c0.5-0.9,0.2-2.1-0.7-2.7c-0.9-0.5-2.1-0.2-2.7,0.7c-1,1.7-1.6,3.2-1.6,5.7c0,2.2,0.9,3.8,1.5,5.1c0.6,1.1,1,2,1,3.1
			c0,0.7-0.1,0.9-0.4,1.5c-0.3,0.6-0.7,1.5-0.9,3l-2.9,0l4.9,8.4l4.8-8.5l-2.8,0C423.2,311.7,423.3,311.3,423.5,310.9z"/>
		<path class="st2" d="M438.5,312.3c0.1-0.6,0.3-1,0.5-1.4c0.3-0.7,0.7-1.6,0.7-3.1c0-2.1-0.8-3.6-1.5-4.9c-0.6-1.1-1.1-2-1.1-3.2
			c0-1.7,0.3-2.6,1-3.8c0.5-0.9,0.2-2.1-0.7-2.7c-0.9-0.5-2.1-0.2-2.7,0.7c-1,1.7-1.6,3.2-1.6,5.7c0,2.2,0.9,3.8,1.5,5.1
			c0.6,1.1,1,2,1,3.1c0,0.7-0.1,0.9-0.4,1.5c-0.3,0.6-0.7,1.5-0.9,3l-2.9,0l4.9,8.4l4.8-8.5L438.5,312.3z"/>
	</g>
	<path class="st4" d="M473.6,241.3H368.4c-3.6,0-6.5,2.9-6.5,6.5v31.3c0,3.6,2.9,6.5,6.5,6.5h105.2c3.6,0,6.5-2.9,6.5-6.5v-31.3
		C480.1,244.2,477.2,241.3,473.6,241.3z"/>
	<path class="st4" d="M458.9,248.5c0-1.4,1.2-2.6,2.6-2.6h4c1.4,0,2.6,1.2,2.6,2.6v4c0,1.4-1.2,2.6-2.6,2.6h-4
		c-1.4,0-2.6-1.2-2.6-2.6V248.5z"/>
	<path class="st4" d="M444.1,248.5c0-1.4,1.2-2.6,2.6-2.6h4c1.4,0,2.6,1.2,2.6,2.6v4c0,1.4-1.2,2.6-2.6,2.6h-4
		c-1.4,0-2.6-1.2-2.6-2.6V248.5z"/>
	<path class="st2" d="M470.1,280.1h-98.2c-1.4,0-2.6-0.8-2.6-1.8c0-1,1.2-1.8,2.6-1.8h98.2c1.4,0,2.6,0.8,2.6,1.8
		C472.7,279.3,471.5,280.1,470.1,280.1z"/>
	<path class="st2" d="M470.1,272.7h-98.2c-1.4,0-2.6-0.8-2.6-1.8c0-1,1.2-1.8,2.6-1.8h98.2c1.4,0,2.6,0.8,2.6,1.8
		C472.7,271.9,471.5,272.7,470.1,272.7z"/>
	<path class="st2" d="M470.1,265.3h-98.2c-1.4,0-2.6-0.8-2.6-1.8c0-1,1.2-1.8,2.6-1.8h98.2c1.4,0,2.6,0.8,2.6,1.8
		C472.7,264.5,471.5,265.3,470.1,265.3z"/>
</g>
<rect x="196" y="206" class="st0" width="150" height="150"/>
<g>
	<path class="st5" d="M285.7,321.1h-53.2c-1.7,0-3-1.3-3-3v-79c0-1.7,1.3-3,3-3h53.2c1.7,0,3,1.3,3,3v79
		C288.7,319.8,287.4,321.1,285.7,321.1z"/>
	<path class="st5" d="M288.7,313.8l21.3,7.4c1.2,0.4,2.4-0.5,2.4-1.7v-81.7c0-1.3-1.2-2.1-2.4-1.7l-21.3,7.4V313.8z"/>
	<path class="st6" d="M282.8,326.1h-47.3c-1.1,0-2-0.9-2-2v-3h51.3v3C284.8,325.2,283.9,326.1,282.8,326.1z"/>
	<line class="st7" x1="235.6" y1="256.8" x2="279.6" y2="256.8"/>
	<line class="st7" x1="235.6" y1="275.8" x2="279.6" y2="275.8"/>
	<line class="st7" x1="235.6" y1="293.8" x2="279.6" y2="293.8"/>
	<line class="st7" x1="235.6" y1="311.8" x2="279.6" y2="311.8"/>
	<circle class="st7" cx="243.7" cy="287.6" r="5.8"/>
	<circle class="st7" cx="258.2" cy="287.6" r="5.8"/>
	<g>
		<circle class="st7" cx="243.7" cy="305.7" r="5.8"/>
		<circle class="st7" cx="258.2" cy="305.7" r="5.8"/>
		<circle class="st7" cx="272.7" cy="305.7" r="5.8"/>
	</g>
	<rect x="241.4" y="261.2" class="st7" width="10.4" height="13.7"/>
	<rect x="255.5" y="261.2" class="st7" width="19.4" height="13.7"/>
	<rect x="254.6" y="246" class="st7" width="8.3" height="10.8"/>
	<rect x="268" y="246" class="st7" width="8.3" height="10.8"/>
	<rect x="241.4" y="246" class="st7" width="8.3" height="10.8"/>
</g>
<rect x="-104" y="206" class="st0" width="150" height="150"/>
<g>
	<g>
		<path class="st4" d="M-20.5,320.5c-3.6,8-13.4,7.9-17,0c-3.2-0.9-5.4-2.4-5.4-4.4v-18.6c9.7,1.7,18.1,1.7,27.8,0v18.6
			C-15.1,318.1-17.3,319.6-20.5,320.5L-20.5,320.5z"/>
		<path class="st4" d="M-42.9,303.7c9.7,1.7,18.1,1.7,27.8,0"/>
		<path class="st4" d="M-42.9,308.6c9.7,1.7,18.1,1.7,27.8,0"/>
		<path class="st4" d="M-42.9,313.5c9.7,1.7,18.1,1.7,27.8,0"/>
	</g>
	<path class="st4" d="M-50,286.1c3.3,3.8,5.6,6,7.2,11c9.3,1.8,18.2,1.7,27.5,0c1.6-4.9,3.9-7.2,7.2-11c5.6-6.3,8.8-14,8.9-22.1
		c0.1-37.9-59.8-37.9-59.7,0C-58.8,272.1-55.5,279.8-50,286.1z"/>
	<g>
		<path class="st2" d="M-28.6,242.5c4.4,0,7.9,1.1,10.6,3.2c2.6,2.1,3.9,5,3.9,8.5c0,2.4-0.5,4.4-1.6,6.1c-1.1,1.7-3.1,3.6-6.2,5.8
			c-2.1,1.5-3.4,2.7-3.9,3.5c-0.5,0.8-0.8,1.8-0.8,3.1v1.9h-8.6v-2.4c0-2.1,0.4-3.9,1.3-5.4c0.9-1.5,2.5-3.1,4.8-4.8
			c2.3-1.7,3.8-3,4.5-4c0.7-1,1.1-2.2,1.1-3.5s-0.5-2.4-1.5-3.1c-1-0.7-2.5-1.1-4.4-1.1c-3.2,0-6.9,1.1-11.1,3.2l-3.5-7.1
			C-39.1,243.9-34,242.5-28.6,242.5z M-36.2,285.8c0-1.8,0.5-3.1,1.5-4.1c1-0.9,2.4-1.4,4.2-1.4c1.8,0,3.2,0.5,4.2,1.4
			c1,0.9,1.5,2.3,1.5,4c0,1.7-0.5,3.1-1.5,4.1c-1,1-2.4,1.5-4.2,1.5s-3.2-0.5-4.2-1.4C-35.7,289-36.2,287.6-36.2,285.8z"/>
	</g>
</g>
<rect x="-254" y="206" class="st8" width="150" height="150"/>
<rect x="-404" y="206" class="st8" width="150" height="150"/>
<rect x="46" y="206" class="st0" width="150" height="150"/>
<g>
	<path class="st9" d="M121,235.5c-25.1,0-45.5,20.4-45.5,45.5s20.4,45.5,45.5,45.5c25.1,0,45.5-20.4,45.5-45.5
		C166.5,255.9,146.1,235.5,121,235.5L121,235.5z"/>
	<path class="st2" d="M121,247.5c-18.5,0-33.5,15-33.5,33.5c0,5.4,1.3,10.6,3.7,15.4c-0.4-2.2-0.7-4.5-0.7-6.9
		c0-18,13.3-32.6,29.8-33c5.2-0.1,10.3,1.4,14.6,4.3l10.5-2.8C139.3,251.6,130.6,247.5,121,247.5L121,247.5z"/>
	<path class="st2" d="M147.9,261.1l-19,5c-3.8-2-8.5-2.6-13-1.2c-9,2.8-14,12.3-11.2,21.2c2.8,9,12.3,14,21.2,11.2
		c7.5-2.3,12.2-9.3,11.9-16.8l12.8-14.9L147.9,261.1z M125.3,287.9c-3.8,2.4-8.7,1.2-11.1-2.5c-2.4-3.8-1.2-8.7,2.5-11.1
		c3.8-2.4,8.7-1.2,11.1,2.5C130.1,280.6,129,285.5,125.3,287.9z"/>
</g>
<g>
	<path class="st7" d="M-168.2,326h-21.7c-5.5,0-10-4.5-10-10v-43.2c0-5.5,4.5-10,10-10h21.7c5.5,0,10,4.5,10,10V316
		C-158.2,321.5-162.6,326-168.2,326z"/>
	<line class="st3" x1="-179" y1="266.6" x2="-179" y2="275.7"/>
	<line class="st3" x1="-179" y1="288.6" x2="-179" y2="297.6"/>
	<line class="st3" x1="-163.5" y1="282.1" x2="-172.6" y2="282.1"/>
	<line class="st3" x1="-185.4" y1="282.1" x2="-194.5" y2="282.1"/>
	<circle class="st7" cx="-179" cy="282.1" r="3.6"/>
	<g>
		<path class="st7" d="M-183.4,309.4h-8.3c-1.1,0-2-0.9-2-2v-1.8c0-1.1,0.9-2,2-2h8.3c1.1,0,2,0.9,2,2v1.8
			C-181.4,308.5-182.3,309.4-183.4,309.4z"/>
		<path class="st7" d="M-166.3,309.4h-8.3c-1.1,0-2-0.9-2-2v-1.8c0-1.1,0.9-2,2-2h8.3c1.1,0,2,0.9,2,2v1.8
			C-164.3,308.5-165.2,309.4-166.3,309.4z"/>
	</g>
	<g>
		<path class="st7" d="M-183.4,319.4h-8.3c-1.1,0-2-0.9-2-2v-1.8c0-1.1,0.9-2,2-2h8.3c1.1,0,2,0.9,2,2v1.8
			C-181.4,318.5-182.3,319.4-183.4,319.4z"/>
		<path class="st7" d="M-166.3,319.4h-8.3c-1.1,0-2-0.9-2-2v-1.8c0-1.1,0.9-2,2-2h8.3c1.1,0,2,0.9,2,2v1.8
			C-164.3,318.5-165.2,319.4-166.3,319.4z"/>
	</g>
	<path class="st3" d="M-170.8,256.6c-2.3-1.7-5.1-2.8-8.2-2.8s-5.9,1-8.2,2.8"/>
	<path class="st3" d="M-163.5,251.5c-4.3-3.3-9.7-5.3-15.5-5.3s-11.2,2-15.5,5.3"/>
	<path class="st3" d="M-155.7,243.9c-6.5-5-14.5-7.9-23.3-7.9s-16.8,3-23.3,7.9"/>
</g>
<g>
	<g>
		<g>
			<line class="st10" x1="-284" y1="326" x2="-284" y2="326"/>
			<line class="st11" x1="-294" y1="326" x2="-369" y2="326"/>
			<line class="st10" x1="-374" y1="326" x2="-374" y2="326"/>
			<line class="st11" x1="-374" y1="316" x2="-374" y2="241"/>
			<line class="st10" x1="-374" y1="236" x2="-374" y2="236"/>
		</g>
	</g>
	<polyline class="st12" points="-374,326 -351.5,288.8 -317.3,278.5 -295.3,245.8 	"/>
	<circle class="st1" cx="-351.5" cy="288.8" r="7.2"/>
	<circle class="st1" cx="-317" cy="278.5" r="7.2"/>
	<circle class="st1" cx="-295.3" cy="245.8" r="7.2"/>
</g>
</svg>
