<?xml version="1.0" encoding="iso-8859-1"?>
<!-- Generator: Adobe Illustrator 18.1.1, SVG Export Plug-In . SVG Version: 6.00 Build 0)  -->
<svg version="1.1" id="Layer_1" xmlns="http://www.w3.org/2000/svg" xmlns:xlink="http://www.w3.org/1999/xlink" x="0px" y="0px"
	 viewBox="0 0 750 150" style="enable-background:new 0 0 750 150;" xml:space="preserve">
<g>
	<rect x="600" y="0" style="fill:none;" width="150" height="150"/>
	<g>
		<g>
			<g>
				
					<path style="fill:#FFFFFF;stroke:#EA7A06;stroke-width:2;stroke-linecap:round;stroke-linejoin:round;stroke-miterlimit:10;" d="
					M659.372,29.545L638.313,50.31v65.599c0,2.51,2.035,4.545,4.545,4.545h64.291c2.51,0,4.545-2.035,4.545-4.545V34.091
					c0-2.51-2.035-4.545-4.545-4.545H659.372z"/>
			</g>
		</g>
	</g>
	<path style="fill-rule:evenodd;clip-rule:evenodd;fill:#EA7A06;" d="M683.634,80.661c5.225,2.996,8.745,8.629,8.745,15.083
		c0,9.596-7.779,17.375-17.375,17.375c-0.045,0-0.09-0.001-0.136-0.002l2.301-3.599c6.671-1.04,11.776-6.811,11.776-13.774
		c0-4.992-2.624-9.371-6.568-11.833L683.634,80.661L683.634,80.661z M668.699,111.939c-6.479-2.524-11.07-8.823-11.07-16.195
		c0-7.811,5.155-14.419,12.249-16.606l-1.631,4.409c-4.285,2.379-7.185,6.949-7.185,12.197c0,5.839,3.589,10.838,8.682,12.914
		L668.699,111.939L668.699,111.939z M673.131,77.413l-7.923,21.417l10.237,0.005l-4.852,15.239h0.753L684.8,93.032l-8.562-0.034
		l6.022-15.584H673.131z"/>
	<path style="fill:#FFFFFF;stroke:#EA7A06;stroke-width:2;stroke-linecap:round;stroke-linejoin:round;stroke-miterlimit:10;" d="
		M662.072,40.443l-2.599-10.885l-21.168,20.708l20.293-4.322C661.096,45.412,662.666,42.927,662.072,40.443z"/>
	
		<line style="fill:none;stroke:#EA7A06;stroke-width:2;stroke-linecap:round;stroke-linejoin:round;stroke-miterlimit:10;" x1="672.636" y1="36.823" x2="706.636" y2="36.823"/>
	
		<line style="fill:none;stroke:#EA7A06;stroke-width:2;stroke-linecap:round;stroke-linejoin:round;stroke-miterlimit:10;" x1="672.636" y1="43.823" x2="706.636" y2="43.823"/>
	
		<line style="fill:none;stroke:#EA7A06;stroke-width:2;stroke-linecap:round;stroke-linejoin:round;stroke-miterlimit:10;" x1="643.636" y1="56.823" x2="706.636" y2="56.823"/>
	
		<line style="fill:none;stroke:#EA7A06;stroke-width:2;stroke-linecap:round;stroke-linejoin:round;stroke-miterlimit:10;" x1="643.636" y1="63.823" x2="706.636" y2="63.823"/>
	
		<line style="fill:none;stroke:#EA7A06;stroke-width:2;stroke-linecap:round;stroke-linejoin:round;stroke-miterlimit:10;" x1="643.636" y1="70.823" x2="706.636" y2="70.823"/>
	<rect x="450" y="0" style="fill:none;" width="150" height="150"/>
	<g>
		<path style="fill:#EA7A06;" d="M512.015,104.888c0.34-0.739,0.727-1.576,0.727-3.113c0-2.098-0.799-3.598-1.504-4.921
			c-0.604-1.134-1.082-2.029-1.082-3.245c0-1.707,0.331-2.579,1.027-3.779c0.542-0.934,0.224-2.13-0.71-2.672
			c-0.935-0.541-2.13-0.223-2.671,0.71c-0.961,1.655-1.555,3.194-1.555,5.741c0,2.191,0.854,3.794,1.54,5.082
			c0.584,1.097,1.045,1.962,1.045,3.084c0,0.679-0.107,0.914-0.368,1.477c-0.3,0.65-0.685,1.504-0.927,3.021l-2.921,0.011
			l4.905,8.418l4.838-8.457l-2.843,0.011C511.66,105.668,511.834,105.281,512.015,104.888z"/>
		<path style="fill:#EA7A06;" d="M527.526,104.888c0.34-0.739,0.727-1.576,0.727-3.113c0-2.098-0.799-3.598-1.504-4.921
			c-0.604-1.134-1.082-2.029-1.082-3.245c0-1.71,0.331-2.58,1.027-3.776c0.543-0.934,0.226-2.13-0.706-2.673
			c-0.934-0.542-2.13-0.226-2.672,0.706c-0.962,1.654-1.558,3.191-1.558,5.743c0,2.191,0.854,3.794,1.54,5.082
			c0.584,1.097,1.045,1.962,1.045,3.084c0,0.679-0.107,0.914-0.368,1.477c-0.3,0.65-0.685,1.504-0.928,3.019l-2.921,0.013
			l4.906,8.418l4.838-8.458l-2.843,0.011C527.17,105.666,527.345,105.281,527.526,104.888z"/>
		<path style="fill:#EA7A06;" d="M542.54,106.255c0.142-0.588,0.316-0.975,0.498-1.368c0.34-0.739,0.727-1.576,0.727-3.113
			c0-2.098-0.799-3.598-1.504-4.921c-0.604-1.134-1.082-2.029-1.082-3.245c0-1.709,0.331-2.579,1.029-3.776
			c0.543-0.934,0.226-2.13-0.706-2.673c-0.933-0.542-2.129-0.226-2.672,0.706c-0.963,1.655-1.559,3.192-1.559,5.743
			c0,2.191,0.854,3.794,1.54,5.082c0.584,1.097,1.045,1.962,1.045,3.084c0,0.679-0.107,0.914-0.368,1.477
			c-0.3,0.65-0.685,1.504-0.927,3.021l-2.921,0.011l4.905,8.418l4.838-8.457L542.54,106.255z"/>
	</g>
	<path style="fill:#FFFFFF;stroke:#EA7A06;stroke-width:2;stroke-miterlimit:10;" d="M577.577,35.299H472.423
		c-3.598,0-6.514,2.916-6.514,6.514v31.288c0,3.598,2.916,6.514,6.514,6.514h105.153c3.598,0,6.514-2.916,6.514-6.514V41.813
		C584.091,38.215,581.175,35.299,577.577,35.299z"/>
	<path style="fill:#FFFFFF;stroke:#EA7A06;stroke-width:2;stroke-miterlimit:10;" d="M562.856,42.519
		c0-1.439,1.167-2.606,2.606-2.606h4.021c1.439,0,2.606,1.167,2.606,2.606v4.021c0,1.439-1.167,2.606-2.606,2.606h-4.021
		c-1.439,0-2.606-1.167-2.606-2.606V42.519z"/>
	<path style="fill:#FFFFFF;stroke:#EA7A06;stroke-width:2;stroke-miterlimit:10;" d="M548.083,42.519
		c0-1.439,1.167-2.606,2.606-2.606h4.021c1.439,0,2.606,1.167,2.606,2.606v4.021c0,1.439-1.167,2.606-2.606,2.606h-4.021
		c-1.439,0-2.606-1.167-2.606-2.606V42.519z"/>
	<path style="fill:#EA7A06;" d="M574.098,74.078h-98.197c-1.439,0-2.606-0.827-2.606-1.847c0-1.019,1.167-1.846,2.606-1.846h98.197
		c1.439,0,2.606,0.827,2.606,1.846C576.704,73.251,575.537,74.078,574.098,74.078z"/>
	<path style="fill:#EA7A06;" d="M574.098,66.691h-98.197c-1.439,0-2.606-0.827-2.606-1.847c0-1.019,1.167-1.846,2.606-1.846h98.197
		c1.439,0,2.606,0.827,2.606,1.846C576.704,65.864,575.537,66.691,574.098,66.691z"/>
	<path style="fill:#EA7A06;" d="M574.098,59.304h-98.197c-1.439,0-2.606-0.827-2.606-1.847c0-1.019,1.167-1.846,2.606-1.846h98.197
		c1.439,0,2.606,0.827,2.606,1.846C576.704,58.477,575.537,59.304,574.098,59.304z"/>
	<rect x="300" y="0" style="fill:none;" width="150" height="150"/>
	<path style="fill:none;stroke:#EA7A06;stroke-width:3;stroke-miterlimit:10;" d="M389.744,115.103h-53.197c-1.657,0-3-1.343-3-3
		v-79.02c0-1.657,1.343-3,3-3h53.197c1.657,0,3,1.343,3,3v79.02C392.744,113.76,391.401,115.103,389.744,115.103z"/>
	<path style="fill:none;stroke:#EA7A06;stroke-width:3;stroke-miterlimit:10;" d="M392.744,107.773l21.294,7.396
		c1.181,0.41,2.415-0.467,2.415-1.718l0-81.718c0-1.251-1.233-2.128-2.415-1.718l-21.294,7.396L392.744,107.773z"/>
	<path style="fill:#EA7A06;stroke:#EA7A06;stroke-width:2;stroke-miterlimit:10;" d="M386.818,120.086h-47.344c-1.105,0-2-0.895-2-2
		v-2.983h51.344v2.983C388.818,119.191,387.922,120.086,386.818,120.086z"/>
	<line style="fill:none;stroke:#EA7A06;stroke-width:2;stroke-miterlimit:10;" x1="339.636" y1="50.823" x2="383.636" y2="50.823"/>
	<line style="fill:none;stroke:#EA7A06;stroke-width:2;stroke-miterlimit:10;" x1="339.636" y1="69.823" x2="383.636" y2="69.823"/>
	<line style="fill:none;stroke:#EA7A06;stroke-width:2;stroke-miterlimit:10;" x1="339.636" y1="87.823" x2="383.636" y2="87.823"/>
	
		<line style="fill:none;stroke:#EA7A06;stroke-width:2;stroke-miterlimit:10;" x1="339.636" y1="105.823" x2="383.636" y2="105.823"/>
	<circle style="fill:none;stroke:#EA7A06;stroke-width:2;stroke-miterlimit:10;" cx="347.742" cy="81.607" r="5.776"/>
	<circle style="fill:none;stroke:#EA7A06;stroke-width:2;stroke-miterlimit:10;" cx="362.24" cy="81.607" r="5.776"/>
	<g>
		<circle style="fill:none;stroke:#EA7A06;stroke-width:2;stroke-miterlimit:10;" cx="347.742" cy="99.728" r="5.776"/>
		<circle style="fill:none;stroke:#EA7A06;stroke-width:2;stroke-miterlimit:10;" cx="362.24" cy="99.728" r="5.776"/>
		<circle style="fill:none;stroke:#EA7A06;stroke-width:2;stroke-miterlimit:10;" cx="376.737" cy="99.728" r="5.776"/>
	</g>
	
		<rect x="345.364" y="55.189" style="fill:none;stroke:#EA7A06;stroke-width:2;stroke-miterlimit:10;" width="10.42" height="13.704"/>
	
		<rect x="359.521" y="55.189" style="fill:none;stroke:#EA7A06;stroke-width:2;stroke-miterlimit:10;" width="19.405" height="13.704"/>
	
		<rect x="358.615" y="40.012" style="fill:none;stroke:#EA7A06;stroke-width:2;stroke-miterlimit:10;" width="8.268" height="10.76"/>
	
		<rect x="371.98" y="40.012" style="fill:none;stroke:#EA7A06;stroke-width:2;stroke-miterlimit:10;" width="8.268" height="10.76"/>
	
		<rect x="345.364" y="40.012" style="fill:none;stroke:#EA7A06;stroke-width:2;stroke-miterlimit:10;" width="8.268" height="10.76"/>
	<rect x="0" y="0" style="fill:none;" width="150" height="150"/>
	<g>
		<path style="fill:#FFFFFF;stroke:#EA7A06;stroke-width:2;stroke-miterlimit:10;" d="M83.481,114.489
			c-3.571,7.958-13.382,7.949-16.961,0.001c-3.18-0.893-5.397-2.368-5.397-4.424V91.499c9.692,1.71,18.062,1.694,27.755,0.002
			v18.565C88.878,112.122,86.661,113.596,83.481,114.489L83.481,114.489z"/>
		<path style="fill:#FFFFFF;stroke:#EA7A06;stroke-width:2;stroke-miterlimit:10;" d="M61.122,97.711
			c9.692,1.71,18.062,1.694,27.755,0.002"/>
		<path style="fill:#FFFFFF;stroke:#EA7A06;stroke-width:2;stroke-miterlimit:10;" d="M61.122,102.582
			c9.692,1.71,18.062,1.694,27.755,0.002"/>
		<path style="fill:#FFFFFF;stroke:#EA7A06;stroke-width:2;stroke-miterlimit:10;" d="M61.122,107.452
			c9.692,1.71,18.062,1.694,27.755,0.002"/>
	</g>
	<path style="fill:#FFFFFF;stroke:#EA7A06;stroke-width:2;stroke-miterlimit:10;" d="M54.033,80.08
		c3.342,3.774,5.619,6.045,7.229,10.998c9.317,1.78,18.158,1.734,27.476,0.003c1.598-4.947,3.894-7.234,7.228-11.002
		c5.568-6.29,8.832-14.013,8.86-22.107c0.13-37.905-59.786-37.901-59.651,0.003C45.203,66.068,48.465,73.79,54.033,80.08z"/>
	<g>
		<path style="fill:#EA7A06;" d="M75.388,36.549c4.42,0,7.946,1.067,10.577,3.202c2.631,2.135,3.946,4.981,3.946,8.54
			c0,2.394-0.534,4.436-1.601,6.13c-1.067,1.693-3.121,3.639-6.162,5.839c-2.091,1.532-3.408,2.696-3.946,3.493
			c-0.539,0.797-0.809,1.844-0.809,3.138v1.941h-8.572v-2.394c0-2.07,0.442-3.877,1.326-5.418s2.486-3.149,4.804-4.82
			c2.318-1.671,3.833-3.003,4.545-3.995c0.712-0.991,1.067-2.156,1.067-3.493s-0.513-2.373-1.536-3.105s-2.475-1.1-4.351-1.1
			c-3.214,0-6.901,1.056-11.063,3.17l-3.526-7.084C64.919,37.896,70.019,36.549,75.388,36.549z M67.787,79.845
			c0-1.779,0.485-3.133,1.456-4.06c0.97-0.927,2.366-1.391,4.189-1.391c1.823,0,3.223,0.474,4.205,1.423
			c0.982,0.949,1.472,2.292,1.472,4.027c0,1.735-0.501,3.094-1.504,4.076c-1.003,0.982-2.394,1.472-4.173,1.472
			c-1.779,0-3.165-0.48-4.157-1.439C68.283,82.994,67.787,81.624,67.787,79.845z"/>
	</g>
	<rect x="150" y="0" style="fill:none;" width="150" height="150"/>
	<path style="fill:#FFFFFF;stroke:#EA7A06;stroke-width:3;stroke-miterlimit:10;" d="M225,29.545
		c-25.103,0-45.454,20.351-45.454,45.455c0,25.104,20.351,45.454,45.454,45.454c25.104,0,45.454-20.351,45.454-45.454
		C270.454,49.896,250.104,29.545,225,29.545L225,29.545z"/>
	<path style="fill-rule:evenodd;clip-rule:evenodd;fill:#EA7A06;" d="M225,41.521c-18.49,0-33.479,14.989-33.479,33.479
		c0,5.355,1.265,10.6,3.721,15.354c-0.431-2.212-0.66-4.505-0.66-6.856c0-17.974,13.265-32.588,29.762-32.967
		c5.217-0.139,10.304,1.369,14.593,4.346l10.485-2.774C243.312,45.59,234.632,41.521,225,41.521L225,41.521z M232.91,60.062
		c-3.848-2.034-8.472-2.596-12.957-1.203c-8.953,2.779-13.959,12.285-11.18,21.237c2.779,8.953,12.287,13.956,21.239,11.179
		c7.478-2.322,12.2-9.339,11.933-16.807l12.797-14.936l-2.809-4.48L232.91,60.062L232.91,60.062z M231.79,70.799
		c-2.356-3.759-7.313-4.897-11.072-2.54c-3.759,2.357-4.895,7.314-2.539,11.073c2.356,3.758,7.314,4.897,11.073,2.539
		C233.011,79.514,234.147,74.557,231.79,70.799z"/>
</g>
</svg>
