
<svg version="1.1" id="Layer_1" xmlns="http://www.w3.org/2000/svg" xmlns:xlink="http://www.w3.org/1999/xlink" x="0px" y="0px"
	 viewBox="0 0 1072.44 264.652" style="enable-background:new 0 0 1072.44 264.652;" xml:space="preserve">
<path style="fill:#51AE43;" d="M48.29,63.225c21.885,0,40.523,11.72,43.208,34.454H74.271C72.436,84.547,61.138,77.628,48.29,77.628
	c-21.603,0-30.639,19.063-30.639,38.408s9.037,38.406,30.639,38.406c18.215,0.423,27.816-10.59,28.24-27.675H49.701v-13.414h42.926
	v53.092H81.332l-2.685-11.862c-9.46,10.732-18.074,14.263-30.357,14.263c-30.075,0-48.29-23.864-48.29-52.81
	C0,87.37,18.215,63.225,48.29,63.225z"/>
<path style="fill:#51AE43;" d="M103.903,93.443h15.11v14.12h0.282c1.835-7.767,11.578-16.098,21.32-16.098
	c3.811,0,4.52,0.282,6.073,0.425v15.531c-2.262-0.423-4.661-0.706-6.92-0.706c-10.872,0-19.768,8.755-19.768,24.992v34.736h-16.098
	V93.443z"/>
<path style="fill:#51AE43;" d="M158.82,134.109c0,11.436,6.214,21.604,19.626,21.604c9.464,0,14.968-4.095,17.792-12.144h15.251
	c-3.388,15.955-17.227,24.851-33.042,24.851c-23.014,0-35.721-15.814-35.721-38.406c0-20.757,13.554-38.549,35.297-38.549
	c23.017,0,37.139,20.757,34.454,42.644H158.82z M196.379,123.518c-0.706-10.166-7.34-19.344-18.356-19.344
	c-11.154,0-18.78,8.472-19.203,19.344H196.379z"/>
<path style="fill:#51AE43;" d="M231.67,134.109c0,11.436,6.214,21.604,19.63,21.604c9.46,0,14.965-4.095,17.788-12.144h15.251
	c-3.388,15.955-17.227,24.851-33.039,24.851c-23.017,0-35.724-15.814-35.724-38.406c0-20.757,13.554-38.549,35.297-38.549
	c23.017,0,37.139,20.757,34.454,42.644H231.67z M269.229,123.518c-0.706-10.166-7.34-19.344-18.356-19.344
	c-11.154,0-18.78,8.472-19.203,19.344H269.229z"/>
<path style="fill:#51AE43;" d="M291.951,93.443h15.251v10.731l0.282,0.282c4.94-8.049,13.13-12.991,22.732-12.991
	c15.957,0,25.84,8.331,25.84,24.852v50.126h-16.098v-45.89c-0.423-11.438-4.658-16.38-14.259-16.38
	c-10.734,0-17.65,8.472-17.65,19.203v43.067h-16.098V93.443z"/>
<path style="fill:#51AE43;" d="M660.157,188.684H0.453v12h669.804C666.613,196.684,663.238,192.684,660.157,188.684z"/>
<path style="fill:#2A4191;" d="M427.765,129.873c0-22.169,12.553-38.408,34.134-38.408c21.577,0,34.134,16.239,34.134,38.408
	c0,22.451-12.557,38.547-34.134,38.547C440.319,168.42,427.765,152.324,427.765,129.873z M481.123,129.873
	c0-12.567-5.886-25.699-19.224-25.699c-13.341,0-19.227,13.132-19.227,25.699c0,12.708,5.886,25.84,19.227,25.84
	C475.237,155.713,481.123,142.581,481.123,129.873z"/>
<path style="fill:#2A4191;" d="M503.603,93.443h14.125v9.884h0.261c4.183-8.472,12.161-11.862,20.924-11.862
	c21.319,0,31.65,17.368,31.65,38.831c0,19.768-9.285,38.124-29.166,38.124c-8.632,0-18.047-3.388-22.623-11.436h-0.261v43.7h-14.91
	V93.443z M536.952,104.174c-12.557,0-18.962,10.166-18.962,25.84c0,14.685,6.932,25.699,18.962,25.699
	c13.602,0,18.701-12.991,18.701-25.699C555.653,116.882,549.244,104.174,536.952,104.174z"/>
<path style="fill:#2A4191;" d="M589.118,143.005c0.915,9.46,7.324,12.708,15.302,12.708c5.755,0,15.433-1.272,15.04-9.602
	c-0.392-8.472-11.246-9.462-22.103-12.144c-10.985-2.542-21.708-6.778-21.708-21.604c0-15.957,15.956-20.898,28.248-20.898
	c13.864,0,26.548,6.073,28.248,22.451h-15.56c-1.441-7.765-7.063-9.743-13.733-9.743c-4.317,0-12.295,1.129-12.295,7.484
	c0,7.908,10.988,9.178,21.972,11.719c10.854,2.683,21.842,6.92,21.842,21.322c0,17.368-16.217,23.721-30.212,23.721
	c-17.132,0-29.555-8.188-29.95-25.415H589.118z"/>
<g>
	<path style="fill:#2A4191;" d="M31.362,263.642v-21.584c0-6.253-1.027-7.732-8.338-7.732h-8.075v20.844
		c0,7.061-2.501,9.212-7.632,9.212c-1.986,0-4.359-1.413-4.359-1.413v-4.371c2.245,1.883,5.899,1.548,5.899-3.294v-25.417h14.427
		c12.694,0,14.168,1.883,14.168,13.649c0,8.674,0,20.106,0,20.106H31.362z"/>
	<path style="fill:#2A4191;" d="M44.305,249.455v-12.978c0-1.75-0.768-5.717-1.346-6.59h6.22c0,0,1.218,2.017,1.218,6.724v12.843
		H44.305z"/>
	<path style="fill:#2A4191;" d="M72.387,264.652c-12.759,0-15.389-10.558-15.389-15.802v-18.962h6.092v19.231
		c0,4.64,2.885,10.893,9.424,10.893c7.501,0,8.847-7.33,8.847-12.172c0-9.144-1.024-14.053-6.667-14.053
		c-4.231,0-4.615,1.546-4.937,1.546v-4.505c0-0.471,2.052-1.95,5.449-1.95c9.424,0,12.438,4.64,12.438,18.894
		C87.644,258.329,82.901,264.652,72.387,264.652z"/>
	<path style="fill:#2A4191;" d="M105.981,263.642c-1.733-1.21-0.643-5.715-2.439-5.715c-1.346,0-0.64,6.724-8.013,6.724
		c-4.169,0-4.743-1.009-4.743-1.009v-5.313c6.217,3.161,13.206-0.739,13.206-11.699c0-0.875,0-3.563,0-3.563
		c0-4.842-1.09-8.741-7.566-8.741c0,0-2.564,0-4.871,0v-4.438h7.31c5.895,0,11.088,3.429,11.088,13.179
		c0,6.388-0.062,13.245,0,13.649c0,3.43,1.221,6.186,1.605,6.926H105.981z"/>
	<path style="fill:#2A4191;" d="M131.877,263.642v-21.45c0-6.522-1.152-7.867-8.912-7.867h-9.68v-4.438h12.694
		c9.296,0,11.991,2.89,11.991,11.564v22.19H131.877z"/>
	<path style="fill:#2A4191;" d="M141.813,263.642v-4.505h11.798V244.21c0-6.926-1.283-9.884-6.539-9.884h-4.809v-4.438h6.795
		c6.155,0,10.58,3.025,10.58,11.766v21.988H141.813z"/>
	<path style="fill:#2A4191;" d="M187.329,263.642l-13.974-20.038l-3.785,20.038h-6.155l5.771-25.619l-5.643-8.136h7.373
		l11.926,17.616l3.913-17.616h6.345l-6.411,22.996l7.566,10.759H187.329z"/>
	<path style="fill:#2A4191;" d="M237.723,263.642v-21.584c0-6.253-1.027-7.732-8.338-7.732h-8.075v20.844
		c0,7.061-2.501,9.212-7.632,9.212c-1.986,0-4.359-1.413-4.359-1.413v-4.371c2.245,1.883,5.899,1.548,5.899-3.294v-25.417h14.427
		c12.694,0,14.168,1.883,14.168,13.649c0,8.674,0,20.106,0,20.106H237.723z"/>
	<path style="fill:#2A4191;" d="M251.372,263.642v-27.165c0-1.75-0.768-5.717-1.346-6.59h6.22c0,0,1.218,2.017,1.218,6.724v27.03
		H251.372z"/>
	<path style="fill:#2A4191;" d="M280.479,263.642h-6.22L277.656,243c0.771-4.573,2.117-8.674-4.55-8.674c-2.951,0-6.989,0-6.989,0
		c-3.141,0-6.348-1.48-6.348-6.253c0-0.067,0-6.322,0-6.322c0-3.967-1.474-6.655-1.474-6.655h6.539c0,0,1.027,2.285,1.027,6.119
		c0,8.405,0.318,8.674,4.103,8.674h7.435c9.94,0,7.438,7.732,6.476,13.38L280.479,263.642z"/>
	<path style="fill:#2A4191;" d="M304.582,263.642h-16.797v-4.438h10.13l-10.13-29.317h6.477l9.871,29.317
		c3.207,0,7.245-1.815,7.245-9.951v-19.365h6.092c0,0,0,11.632,0,19.5C317.47,259.473,312.595,263.642,304.582,263.642z"/>
	<path style="fill:#2A4191;" d="M324.327,249.455v-12.978c0-1.75-0.768-5.717-1.346-6.59h6.22c0,0,1.218,2.017,1.218,6.724v12.843
		H324.327z"/>
	<path style="fill:#2A4191;" d="M337.402,249.455v-12.978c0-1.75-0.768-5.717-1.346-6.59h6.22c0,0,1.218,2.017,1.218,6.724v12.843
		H337.402z"/>
	<path style="fill:#2A4191;" d="M374.396,263.642v-21.584c0-6.253-1.027-7.732-8.338-7.732h-8.075v20.844
		c0,7.061-2.501,9.212-7.632,9.212c-1.986,0-4.359-1.413-4.359-1.413v-4.371c2.245,1.883,5.899,1.548,5.899-3.294v-25.417h14.427
		c12.694,0,14.168,1.883,14.168,13.649c0,8.674,0,20.106,0,20.106H374.396z"/>
	<path style="fill:#2A4191;" d="M409.142,263.642v-19.567c0-7.195-1.474-9.749-8.975-9.749h-13.659v-4.438h13.915
		c10.448,0,14.808,2.219,14.808,13.985v19.769H409.142z M386.509,263.642v-19.904h6.155v19.904H386.509z"/>
	<path style="fill:#2A4191;" d="M419.269,263.642v-4.438h8.784c7.563,0,10.064-5.715,10.064-12.978
		c0-8.203-4.038-11.901-10.514-11.901h-7.95v-4.438h8.016c9.68,0,16.925,3.631,16.925,16.204c0,11.633-6.667,11.903-6.667,13.045
		c0,0.673,2.626,0.067,4.359,0.067h5.577v4.438H419.269z"/>
	<path style="fill:#2A4191;" d="M467.86,263.642v-33.755c7.054,0,18.336,0,18.336,0c9.234,0,12.054,2.89,12.054,11.564
		c0,4.573,0,22.19,0,22.19S476.132,263.642,467.86,263.642z M492.161,242.192c0-6.522-1.155-7.867-8.978-7.867h-9.231v24.879h18.208
		V242.192z"/>
	<path style="fill:#2A4191;" d="M505.17,249.455v-12.978c0-1.75-0.768-5.717-1.346-6.59h6.22c0,0,1.218,2.017,1.218,6.724v12.843
		H505.17z"/>
	<path style="fill:#2A4191;" d="M541.649,263.642V244.21c0-7.33-1.218-9.884-7.757-9.884h-9.49v29.317h-6.089v-33.755l15.773-0.067
		c10.13-0.067,13.655,3.227,13.655,13.514v20.308H541.649z"/>
	<path style="fill:#2A4191;" d="M568.701,263.642v-4.64c4.937,1.479,10.58,1.144,10.58-5.715v-10.691
		c0-2.623,0.19-9.213-6.989-9.213c-6.795,0-10.642,7.599-10.642,13.045v17.214h-6.092v-26.426c0-1.748,0.194-4.034-0.768-7.328
		h5.705c0.834,2.286,0.834,4.034,0.834,6.992c0.194,0.336,0.384,0.404,0.64,0.067c0,0,2.439-8.203,11.414-8.203
		c12.372,0,12.054,9.549,12.054,13.718v11.297C585.435,263.844,577.613,266.131,568.701,263.642z"/>
	<path style="fill:#2A4191;" d="M593.061,263.642v-27.165c0-1.75-0.768-5.717-1.346-6.59h6.22c0,0,1.218,2.017,1.218,6.724v27.03
		H593.061z"/>
	<path style="fill:#2A4191;" d="M620.759,263.642v-4.64c4.937,1.479,10.58,1.144,10.58-5.715v-10.691
		c0-2.623,0.19-9.213-6.989-9.213c-6.795,0-10.642,7.599-10.642,13.045v17.214h-6.092v-26.426c0-1.748,0.194-4.034-0.768-7.328
		h5.705c0.834,2.286,0.834,4.034,0.834,6.992c0.194,0.336,0.384,0.404,0.64,0.067c0,0,2.439-8.203,11.414-8.203
		c12.372,0,12.054,9.549,12.054,13.718v11.297C637.493,263.844,629.671,266.131,620.759,263.642z"/>
</g>
<linearGradient id="SVGID_1_" gradientUnits="userSpaceOnUse" x1="646.8145" y1="123.4429" x2="853.6447" y2="123.4429">
	<stop  offset="0" style="stop-color:#CA2424"/>
	<stop  offset="1" style="stop-color:#EA7A06"/>
</linearGradient>
<path style="fill:url(#SVGID_1_);" d="M841.453,168.684v-42.615c0-7.744-4.73-12.585-12.596-12.585
	c-12.464,0-18.404,8.35-18.404,19.603v35.598h-10v-63h10v10h-0.355c4.356-8,11.498-11.325,20.573-11.325
	c16.456,0,21.782,9.488,21.782,22.92v13.441c1-5.641,1.191-11.433,1.191-17.343c0-57.496-46.382-104.107-103.446-104.107
	S646.815,65.88,646.815,123.377s46.229,104.239,103.293,104.239c41.051,0,76.478-23.932,93.147-58.932H841.453z M793.453,168.684
	h-60v-87h59v10h-48v27h45v10h-45v30h49V168.684z"/>
<linearGradient id="SVGID_2_" gradientUnits="userSpaceOnUse" x1="859.2292" y1="149.1092" x2="1072.4402" y2="149.1092">
	<stop  offset="0" style="stop-color:#CA2424"/>
	<stop  offset="1" style="stop-color:#EA7A06"/>
</linearGradient>
<path style="fill:url(#SVGID_2_);" d="M915.979,148.574c-2.783,13.915-12.585,21.297-26.742,21.297
	c-19.965,0-29.403-13.916-30.008-32.913c0-18.876,12.342-32.55,29.403-32.55c22.144,0,28.919,20.691,28.314,35.817h-46.828
	c-0.363,10.89,5.809,20.57,19.481,20.57c8.591,0,14.399-3.993,16.215-12.222H915.979z M906.056,131.15
	c-0.604-9.802-7.744-17.667-18.029-17.667c-10.647,0-17.303,7.986-17.908,17.667H906.056z M922.393,105.86h9.681v13.189h0.242
	c4.961-10.164,11.857-15.004,22.99-14.642v10.891c-16.577,0-22.628,9.317-22.628,25.289v27.831h-10.285V105.86z M1010.001,163.095
	c0,20.449-9.196,30.734-29.04,30.734c-11.737,0-25.29-4.84-25.895-18.393h10.285c0.363,7.382,9.559,10.164,16.214,10.164
	c13.432,0,18.756-9.68,18.756-23.716v-4.114h-0.242c-3.509,7.623-11.495,11.374-19.481,11.374
	c-18.635,0-27.951-14.641-27.951-31.702c0-14.763,7.139-33.034,28.919-33.034c7.865,0,14.884,3.51,18.635,10.406h0.121v-8.954h9.68
	V163.095z M999.837,135.869c0-11.011-4.84-22.386-17.787-22.386c-13.189,0-18.514,10.77-18.514,22.749
	c0,11.253,4.114,23.837,17.667,23.837C994.755,160.069,999.837,147.606,999.837,135.869z M1045.215,176.768
	c-4.84,12.101-8.954,16.698-18.15,16.698c-2.42,0-4.84-0.241-7.139-1.089v-9.438c1.936,0.604,3.992,1.451,6.05,1.451
	c4.235,0,6.534-1.936,8.47-5.687l4.235-10.648l-24.806-62.195h11.616l18.271,51.185h0.242l17.545-51.185h10.891L1045.215,176.768z"
	/>
<polygon style="fill:#2A4191;" points="546.713,0.619 554.886,11.673 507.373,49.41 472.079,31.17 356.112,96.684 386.364,96.684
	399.453,89.947 399.453,166.684 416.453,166.684 416.453,80.237 473.005,49.077 507.416,69.245 563.419,23.185 571.403,33.997
	582.467,0 "/>
</svg>
