<?xml version="1.0" encoding="iso-8859-1"?>
<!-- Generator: Adobe Illustrator 18.1.1, SVG Export Plug-In . SVG Version: 6.00 Build 0)  -->
<svg version="1.1" id="Layer_1" xmlns="http://www.w3.org/2000/svg" xmlns:xlink="http://www.w3.org/1999/xlink" x="0px" y="0px"
	 viewBox="0 0 486.272 120" style="enable-background:new 0 0 486.272 120;" xml:space="preserve">
<g>
	<path style="fill:#FFFFFF;" d="M21.896,28.668c9.923,0,18.374,5.314,19.592,15.622h-7.811c-0.832-5.954-5.955-9.092-11.78-9.092
		c-9.795,0-13.893,8.644-13.893,17.415c0,8.771,4.097,17.414,13.893,17.414c8.259,0.192,12.612-4.802,12.805-12.549H22.536v-6.083
		H42V75.47h-5.122l-1.217-5.379c-4.289,4.866-8.195,6.467-13.765,6.467C8.259,76.559,0,65.738,0,52.613
		C0,39.616,8.259,28.668,21.896,28.668"/>
	<path style="fill:#FFFFFF;" d="M47.112,42.37h6.851v6.402h0.128c0.832-3.522,5.25-7.299,9.667-7.299
		c1.728,0,2.049,0.128,2.754,0.193v7.043c-1.026-0.192-2.113-0.32-3.138-0.32c-4.93,0-8.963,3.97-8.963,11.332v15.75h-7.299V42.37z"
		/>
	<path style="fill:#FFFFFF;" d="M72.013,60.808c0,5.186,2.818,9.796,8.899,9.796c4.291,0,6.787-1.857,8.067-5.506h6.915
		c-1.536,7.234-7.811,11.268-14.983,11.268c-10.435,0-16.196-7.17-16.196-17.414c0-9.412,6.145-17.479,16.005-17.479
		c10.437,0,16.84,9.412,15.622,19.336H72.013z M89.043,56.006c-0.32-4.61-3.328-8.771-8.323-8.771c-5.058,0-8.515,3.841-8.707,8.771
		H89.043z"/>
	<path style="fill:#FFFFFF;" d="M105.045,60.808c0,5.186,2.818,9.796,8.901,9.796c4.289,0,6.785-1.857,8.066-5.506h6.915
		c-1.536,7.234-7.811,11.268-14.981,11.268c-10.437,0-16.198-7.17-16.198-17.414c0-9.412,6.145-17.479,16.005-17.479
		c10.436,0,16.84,9.412,15.622,19.336H105.045z M122.076,56.006c-0.32-4.61-3.328-8.771-8.323-8.771
		c-5.058,0-8.515,3.841-8.707,8.771H122.076z"/>
	<path style="fill:#FFFFFF;" d="M132.378,42.37h6.915v4.866l0.128,0.128c2.24-3.65,5.953-5.89,10.307-5.89
		c7.235,0,11.717,3.777,11.717,11.269V75.47h-7.299V54.662c-0.192-5.186-2.112-7.427-6.466-7.427c-4.867,0-8.003,3.841-8.003,8.707
		V75.47h-7.299V42.37z"/>
	<path style="fill:#FFFFFF;" d="M299.332,85.554H0.101v5.441h303.811C302.26,89.181,300.729,87.368,299.332,85.554"/>
	<path style="fill:#FFFFFF;" d="M193.96,58.888c0-10.052,5.692-17.415,15.477-17.415c9.784,0,15.477,7.363,15.477,17.415
		c0,10.18-5.694,17.478-15.477,17.478C199.652,76.366,193.96,69.068,193.96,58.888 M218.153,58.888
		c0-5.698-2.669-11.653-8.717-11.653c-6.049,0-8.718,5.954-8.718,11.653c0,5.762,2.669,11.717,8.718,11.717
		C215.485,70.604,218.153,64.65,218.153,58.888"/>
	<path style="fill:#FFFFFF;" d="M228.347,42.369h6.405v4.482h0.119c1.897-3.841,5.514-5.378,9.487-5.378
		c9.667,0,14.351,7.875,14.351,17.607c0,8.963-4.21,17.286-13.225,17.286c-3.914,0-8.183-1.536-10.258-5.185h-0.119v19.815h-6.76
		V42.369z M243.468,47.235c-5.694,0-8.598,4.61-8.598,11.717c0,6.659,3.143,11.653,8.598,11.653c6.167,0,8.48-5.89,8.48-11.653
		C251.947,52.997,249.041,47.235,243.468,47.235"/>
	<path style="fill:#FFFFFF;" d="M267.121,64.842c0.415,4.289,3.321,5.762,6.938,5.762c2.609,0,6.998-0.577,6.82-4.353
		c-0.178-3.841-5.099-4.29-10.022-5.506c-4.98-1.153-9.843-3.073-9.843-9.796c0-7.235,7.235-9.476,12.808-9.476
		c6.286,0,12.038,2.754,12.808,10.18h-7.056c-0.653-3.521-3.202-4.418-6.227-4.418c-1.957,0-5.575,0.512-5.575,3.393
		c0,3.586,4.982,4.162,9.963,5.314c4.921,1.217,9.904,3.138,9.904,9.668c0,7.875-7.353,10.756-13.699,10.756
		c-7.768,0-13.401-3.713-13.58-11.524H267.121z"/>
	<path style="fill:#FFFFFF;" d="M14.22,119.542v-9.787c0-2.835-0.466-3.506-3.781-3.506H6.778v9.452
		c0,3.202-1.134,4.177-3.461,4.177c-0.901,0-1.976-0.641-1.976-0.641v-1.982c1.018,0.854,2.675,0.702,2.675-1.494v-11.525h6.542
		c5.755,0,6.424,0.854,6.424,6.189v9.117H14.22z"/>
	<path style="fill:#FFFFFF;" d="M20.089,113.109v-5.885c0-0.793-0.348-2.592-0.61-2.988h2.821c0,0,0.552,0.915,0.552,3.049v5.823
		H20.089z"/>
	<path style="fill:#FFFFFF;" d="M32.822,120c-5.785,0-6.978-4.787-6.978-7.165v-8.598h2.763v8.72c0,2.104,1.308,4.939,4.273,4.939
		c3.401,0,4.011-3.324,4.011-5.519c0-4.146-0.465-6.372-3.023-6.372c-1.919,0-2.093,0.701-2.239,0.701v-2.043
		c0-0.214,0.93-0.884,2.471-0.884c4.273,0,5.639,2.104,5.639,8.567C39.74,117.133,37.59,120,32.822,120"/>
	<path style="fill:#FFFFFF;" d="M48.055,119.542c-0.786-0.549-0.292-2.591-1.106-2.591c-0.61,0-0.29,3.049-3.633,3.049
		c-1.89,0-2.151-0.458-2.151-0.458v-2.409c2.819,1.433,5.988-0.335,5.988-5.305v-1.616c0-2.195-0.494-3.964-3.431-3.964h-2.209
		v-2.012h3.315c2.673,0,5.028,1.555,5.028,5.976c0,2.896-0.028,6.006,0,6.189c0,1.555,0.554,2.805,0.728,3.14H48.055z"/>
	<path style="fill:#FFFFFF;" d="M59.797,119.542v-9.726c0-2.957-0.522-3.567-4.041-3.567h-4.389v-2.012h5.755
		c4.215,0,5.437,1.311,5.437,5.244v10.062H59.797z"/>
	<path style="fill:#FFFFFF;" d="M64.302,119.542V117.5h5.35v-6.769c0-3.14-0.582-4.482-2.965-4.482h-2.181v-2.012h3.081
		c2.79,0,4.797,1.372,4.797,5.335v9.97H64.302z"/>
	<polygon style="fill:#FFFFFF;" points="84.94,119.542 78.604,110.456 76.888,119.542 74.097,119.542 76.713,107.926 
		74.155,104.237 77.498,104.237 82.905,112.224 84.68,104.237 87.557,104.237 84.65,114.664 88.08,119.542 	"/>
	<path style="fill:#FFFFFF;" d="M107.79,119.542v-9.787c0-2.835-0.466-3.506-3.781-3.506h-3.661v9.452
		c0,3.202-1.134,4.177-3.461,4.177c-0.901,0-1.976-0.641-1.976-0.641v-1.982c1.018,0.854,2.675,0.702,2.675-1.494v-11.525h6.542
		c5.755,0,6.424,0.854,6.424,6.189v9.117H107.79z"/>
	<path style="fill:#FFFFFF;" d="M113.979,119.542v-12.317c0-0.793-0.348-2.592-0.61-2.988h2.821c0,0,0.552,0.915,0.552,3.049v12.256
		H113.979z"/>
	<path style="fill:#FFFFFF;" d="M127.176,119.542h-2.82l1.54-9.36c0.35-2.074,0.96-3.933-2.063-3.933h-3.169
		c-1.425,0-2.879-0.671-2.879-2.835v-2.867c0-1.799-0.668-3.018-0.668-3.018h2.965c0,0,0.466,1.036,0.466,2.774
		c0,3.811,0.144,3.933,1.86,3.933h3.371c4.507,0,3.373,3.506,2.936,6.067L127.176,119.542z"/>
	<path style="fill:#FFFFFF;" d="M138.106,119.542h-7.616v-2.012h4.593l-4.593-13.293h2.937l4.475,13.293
		c1.454,0,3.285-0.823,3.285-4.512v-8.781h2.762v8.842C143.949,117.652,141.739,119.542,138.106,119.542"/>
	<path style="fill:#FFFFFF;" d="M147.058,113.109v-5.885c0-0.793-0.348-2.592-0.61-2.988h2.821c0,0,0.552,0.915,0.552,3.049v5.823
		H147.058z"/>
	<path style="fill:#FFFFFF;" d="M152.987,113.109v-5.885c0-0.793-0.348-2.592-0.61-2.988h2.821c0,0,0.552,0.915,0.552,3.049v5.823
		H152.987z"/>
	<path style="fill:#FFFFFF;" d="M169.761,119.542v-9.787c0-2.835-0.466-3.506-3.781-3.506h-3.661v9.452
		c0,3.202-1.134,4.177-3.461,4.177c-0.9,0-1.976-0.641-1.976-0.641v-1.982c1.018,0.854,2.675,0.702,2.675-1.494v-11.525h6.542
		c5.755,0,6.424,0.854,6.424,6.189v9.117H169.761z"/>
	<path style="fill:#FFFFFF;" d="M185.516,119.542v-8.873c0-3.262-0.668-4.42-4.069-4.42h-6.193v-2.012h6.309
		c4.738,0,6.714,1.006,6.714,6.341v8.964H185.516z M175.253,110.517h2.791v9.025h-2.791V110.517z"/>
	<path style="fill:#FFFFFF;" d="M190.107,119.542v-2.012h3.983c3.429,0,4.563-2.591,4.563-5.885c0-3.719-1.83-5.396-4.767-5.396
		h-3.605v-2.012h3.635c4.389,0,7.674,1.646,7.674,7.348c0,5.275-3.023,5.397-3.023,5.915c0,0.305,1.191,0.03,1.976,0.03h2.529v2.012
		H190.107z"/>
	<path style="fill:#FFFFFF;" d="M212.14,119.542v-15.305h8.314c4.186,0,5.465,1.311,5.465,5.244v10.062H212.14z M223.159,109.816
		c0-2.957-0.524-3.567-4.071-3.567h-4.185v11.281h8.256V109.816z"/>
	<path style="fill:#FFFFFF;" d="M229.057,113.109v-5.885c0-0.793-0.348-2.592-0.61-2.988h2.821c0,0,0.552,0.915,0.552,3.049v5.823
		H229.057z"/>
	<path style="fill:#FFFFFF;" d="M245.598,119.542v-8.811c0-3.324-0.552-4.482-3.517-4.482h-4.303v13.293h-2.761v-15.305l7.152-0.03
		c4.593-0.03,6.192,1.463,6.192,6.128v9.208H245.598z"/>
	<path style="fill:#FFFFFF;" d="M257.864,119.542v-2.104c2.239,0.671,4.797,0.519,4.797-2.591v-4.848
		c0-1.189,0.086-4.177-3.169-4.177c-3.081,0-4.825,3.446-4.825,5.915v7.805h-2.762V107.56c0-0.793,0.088-1.83-0.348-3.323h2.587
		c0.378,1.037,0.378,1.83,0.378,3.17c0.088,0.153,0.174,0.183,0.29,0.031c0,0,1.106-3.72,5.175-3.72c5.61,0,5.465,4.33,5.465,6.22
		v5.122C265.451,119.634,261.904,120.67,257.864,119.542"/>
	<path style="fill:#FFFFFF;" d="M268.909,119.542v-12.317c0-0.793-0.348-2.592-0.61-2.988h2.821c0,0,0.552,0.915,0.552,3.049v12.256
		H268.909z"/>
	<path style="fill:#FFFFFF;" d="M281.468,119.542v-2.104c2.239,0.671,4.797,0.519,4.797-2.591v-4.848
		c0-1.189,0.086-4.177-3.169-4.177c-3.081,0-4.825,3.446-4.825,5.915v7.805h-2.762V107.56c0-0.793,0.088-1.83-0.348-3.323h2.587
		c0.378,1.037,0.378,1.83,0.378,3.17c0.088,0.153,0.174,0.183,0.29,0.031c0,0,1.106-3.72,5.175-3.72c5.61,0,5.465,4.33,5.465,6.22
		v5.122C289.056,119.634,285.509,120.67,281.468,119.542"/>
	<path style="fill:#FFFFFF;" d="M367.319,52.454h0.056v-0.102C367.356,52.386,367.338,52.42,367.319,52.454 M332.461,37.038h26.752
		v4.534h-21.764v12.242h20.404v4.534h-20.404v13.603h22.217v4.534h-27.206V37.038z M293.269,55.942
		c0,26.071,20.968,47.265,46.842,47.265c18.614,0,34.684-10.851,42.242-26.721h-0.922V57.162c0-3.511-2.145-5.706-5.711-5.706
		c-5.651,0-8.345,3.786-8.345,8.889v16.141h-4.534V47.92h4.534v4.433c1.98-3.554,5.144-5.034,9.22-5.034
		c7.462,0,9.824,4.303,9.824,10.393v6.094c0.453-2.557,0.593-5.184,0.593-7.863c0-26.07-21.004-47.204-46.879-47.204
		C314.259,8.738,293.269,29.872,293.269,55.942"/>
	<path style="fill:#FFFFFF;" d="M481.334,48l-7.955,23.208h-0.11L464.984,48h-5.267l11.248,28.201l-1.92,4.829
		c-0.877,1.7-1.92,2.578-3.84,2.578c-0.934,0-1.866-0.384-2.743-0.658v4.279c1.042,0.385,2.14,0.494,3.237,0.494
		c4.17,0,6.036-2.085,8.23-7.571L486.272,48H481.334z M402.654,51.456c4.664,0,7.901,3.567,8.175,8.011h-16.295
		C394.809,55.078,397.826,51.456,402.654,51.456 M389.597,62.1c0.274,8.614,4.554,14.924,13.606,14.924
		c6.419,0,10.864-3.347,12.125-9.656h-4.609c-0.823,3.731-3.457,5.542-7.352,5.542c-6.199,0-8.998-4.39-8.833-9.327h21.233
		c0.274-6.859-2.798-16.24-12.839-16.24C395.193,47.342,389.597,53.542,389.597,62.1 M436.892,61.771
		c0-5.432,2.414-10.315,8.394-10.315c5.871,0,8.065,5.158,8.065,10.15c0,5.322-2.304,10.973-8.449,10.973
		C438.757,72.579,436.892,66.873,436.892,61.771 M431.954,62.32c0,7.737,4.224,14.375,12.674,14.375
		c3.621,0,7.242-1.701,8.833-5.157h0.11v1.865c0,6.364-2.414,10.753-8.504,10.753c-3.018,0-7.187-1.261-7.352-4.609h-4.663
		c0.274,6.145,6.42,8.339,11.741,8.339c8.998,0,13.168-4.663,13.168-13.936V48h-4.389v4.06h-0.055
		c-1.701-3.127-4.883-4.718-8.45-4.718C435.191,47.342,431.954,55.626,431.954,62.32 M422.736,53.98h-0.11V48h-4.39v28.366h4.663
		v-12.62c0-7.242,2.744-11.467,10.26-11.467v-4.938c-0.176-0.006-0.35-0.009-0.521-0.009
		C427.896,47.333,424.907,49.533,422.736,53.98"/>
	<polygon style="fill:#FFFFFF;" points="247.894,0.281 251.6,5.293 230.056,22.404 214.052,14.133 161.47,43.839 175.187,43.839 
		181.017,40.784 181.017,75.579 188.725,75.579 188.725,36.382 214.42,22.253 230.049,31.398 255.456,10.513 259.082,15.415 
		264.102,0 	"/>
</g>
</svg>
