<?xml version="1.0" encoding="iso-8859-1"?>
<!-- Generator: Adobe Illustrator 18.1.1, SVG Export Plug-In . SVG Version: 6.00 Build 0)  -->
<svg version="1.1" id="Layer_1" xmlns="http://www.w3.org/2000/svg" xmlns:xlink="http://www.w3.org/1999/xlink" x="0px" y="0px"
	 viewBox="0 0 600 200" style="enable-background:new 0 0 600 200;" xml:space="preserve">
<g>
	<rect y="0" style="fill:none;" width="200" height="200"/>
	<rect x="200" y="0" style="fill:none;" width="200" height="200"/>
	<rect x="400" y="0" style="fill:none;" width="200" height="200"/>
	<g>
		<circle style="fill:#FFFFFF;stroke:#CA2424;stroke-width:3;stroke-miterlimit:10;" cx="100" cy="100.001" r="75"/>
		<g>
			
				<rect x="114.744" y="59.685" transform="matrix(0.7071 -0.7071 0.7071 0.7071 -14.3928 111.032)" style="fill:#7F8C8D;" width="24.19" height="26.412"/>
			<polygon style="fill:#FFFFFF;" points="133.46,65.519 131.476,67.499 129.92,69.054 127.136,71.841 126.169,70.873 
				125.413,70.121 124.661,70.873 123.267,72.269 121.874,73.661 121.121,74.414 121.874,75.168 122.843,76.136 121.449,77.526 
				117.909,81.065 118.665,81.821 122.202,78.28 123.595,76.889 124.349,76.137 123.595,75.38 122.629,74.415 124.02,73.02 
				125.413,71.628 126.383,72.594 127.136,73.35 127.89,72.594 130.673,69.81 132.229,68.255 134.214,66.273 135.769,64.718 
				135.012,63.962 			"/>
			
				<rect x="125.967" y="59.43" transform="matrix(0.7072 -0.707 0.707 0.7072 -7.3351 108.1463)" style="fill:#FFFFFF;" width="1.877" height="6.998"/>
			
				<rect x="136.878" y="70.343" transform="matrix(0.7068 -0.7074 0.7074 0.7068 -11.8301 119.1361)" style="fill:#FFFFFF;" width="1.878" height="6.994"/>
			
				<rect x="137.077" y="70.691" transform="matrix(0.708 -0.7062 0.7062 0.708 -12.2537 118.7403)" style="fill:#616161;" width="0.784" height="6.996"/>
			
				<rect x="126.167" y="59.78" transform="matrix(0.7091 -0.7051 0.7051 0.7091 -7.8016 107.6482)" style="fill:#616161;" width="0.78" height="6.997"/>
			<path style="fill:#CA2424;" d="M133.129,95.893l-45.524,45.525c-4.776,4.776-12.523,4.778-17.301,0l-11.993-11.993
				c-4.775-4.775-4.775-12.523,0-17.299l45.526-45.525L133.129,95.893z"/>
			<g>
				<path style="fill:#FFFFFF;" d="M82.727,107l6.359,6.362c0.724,0.725,1.202,1.524,1.422,2.393
					c0.223,0.872,0.171,1.762-0.15,2.666c-0.322,0.908-0.902,1.777-1.741,2.615c-1.263,1.263-2.571,1.921-3.916,1.974
					c-1.346,0.049-2.584-0.487-3.708-1.613l-6.335-6.33l2.079-2.076l6.015,6.015c0.759,0.756,1.467,1.161,2.127,1.211
					c0.659,0.049,1.343-0.279,2.046-0.983c0.679-0.679,0.993-1.354,0.946-2.015c-0.05-0.664-0.453-1.375-1.219-2.141l-6.002-6.002
					L82.727,107z"/>
				<path style="fill:#FFFFFF;" d="M98.036,105.891c0.887,0.887,1.266,1.906,1.138,3.055c-0.129,1.15-0.759,2.291-1.901,3.432
					c-1.048,1.048-2.172,1.781-3.373,2.193l-1.936-1.936c0.959-0.368,1.73-0.72,2.309-1.059c0.579-0.339,1.061-0.698,1.445-1.08
					c0.455-0.458,0.718-0.894,0.788-1.315c0.069-0.418-0.069-0.799-0.413-1.147c-0.193-0.189-0.418-0.307-0.677-0.349
					c-0.258-0.047-0.558-0.033-0.908,0.038c-0.346,0.07-0.993,0.272-1.939,0.607c-0.885,0.321-1.605,0.5-2.164,0.54
					c-0.561,0.041-1.103-0.022-1.626-0.19c-0.526-0.164-1.018-0.479-1.48-0.94c-0.869-0.869-1.26-1.848-1.167-2.934
					c0.093-1.086,0.657-2.149,1.697-3.191c0.512-0.514,1.061-0.938,1.646-1.279c0.584-0.346,1.241-0.659,1.965-0.946l0.947,2.293
					c-0.737,0.308-1.323,0.593-1.751,0.852c-0.426,0.256-0.807,0.55-1.137,0.882c-0.394,0.394-0.608,0.789-0.634,1.181
					c-0.025,0.396,0.109,0.74,0.404,1.037c0.183,0.183,0.388,0.302,0.608,0.352c0.223,0.052,0.488,0.047,0.803-0.01
					c0.313-0.059,0.986-0.269,2.009-0.631c1.359-0.48,2.429-0.667,3.21-0.568C96.684,104.878,97.397,105.252,98.036,105.891z"/>
				<path style="fill:#FFFFFF;" d="M92.718,97.008l3.06-3.058c1.392-1.392,2.606-2.204,3.631-2.438
					c1.022-0.234,1.969,0.083,2.836,0.949c0.587,0.587,0.929,1.204,1.033,1.858c0.099,0.651-0.039,1.244-0.421,1.776l0.067,0.067
					c0.761-0.482,1.468-0.673,2.125-0.568c0.661,0.107,1.305,0.475,1.934,1.107c0.896,0.896,1.271,1.923,1.128,3.07
					c-0.146,1.149-0.773,2.279-1.886,3.392l-3.678,3.677L92.718,97.008z M98.696,98.82l1.208-1.21
					c0.565-0.566,0.888-1.062,0.963-1.489c0.08-0.428-0.083-0.845-0.484-1.247c-0.378-0.378-0.785-0.51-1.224-0.397
					c-0.439,0.112-0.956,0.466-1.554,1.062l-1.095,1.095L98.696,98.82z M100.35,100.472l2.56,2.56l1.357-1.357
					c0.575-0.574,0.889-1.105,0.942-1.6c0.055-0.494-0.143-0.965-0.596-1.416c-0.815-0.818-1.808-0.641-2.974,0.525L100.35,100.472z
					"/>
			</g>
		</g>
	</g>
	<g>
		<circle style="fill:#FFFFFF;stroke:#2980B9;stroke-width:3;stroke-miterlimit:10;" cx="300" cy="100" r="75"/>
		<g>
			<g>
				<g>
					<g>
						<g>
							<g>
								<g>
									<g>
										<g>
											<path style="fill:#2980B9;" d="M282.844,98.932c-8.868,0-16.083-7.215-16.083-16.084c0-8.868,7.215-16.084,16.083-16.084
												c8.869,0,16.087,7.215,16.087,16.084C298.93,91.717,291.713,98.932,282.844,98.932z M282.844,72.394
												c-5.765,0-10.457,4.691-10.457,10.455c0,5.764,4.692,10.453,10.457,10.453c5.766,0,10.457-4.689,10.457-10.453
												C293.301,77.085,288.61,72.394,282.844,72.394z"/>
										</g>
									</g>
								</g>
							</g>
						</g>
					</g>
				</g>
				<g>
					<g>
						<g>
							<g>
								<g>
									<g>
										<g>
											<path style="fill:#2980B9;" d="M282.844,110.696c-15.353,0-27.846-12.493-27.846-27.847
												C254.998,67.49,267.49,55,282.844,55c15.357,0,27.849,12.49,27.849,27.849
												C310.692,98.202,298.201,110.696,282.844,110.696z M282.844,60.629c-12.251,0-22.218,9.967-22.218,22.22
												c0,12.253,9.967,22.218,22.218,22.218c12.252,0,22.221-9.965,22.221-22.218
												C305.065,70.596,295.095,60.629,282.844,60.629z"/>
										</g>
									</g>
								</g>
							</g>
						</g>
					</g>
				</g>
			</g>
			<g>
				<g>
					<g>
						<g>
							<g>
								<g>
									<path style="fill:#BDC3C7;" d="M344.452,130.142l-19.998-20l11.415-11.418c1.754-1.75,1.209-3.629-1.207-4.176
										l-47.425-10.709c-2.416-0.545-3.945,0.985-3.4,3.403l10.709,47.424c0.544,2.415,2.424,2.958,4.177,1.206l11.424-11.424
										l20.001,20.002c0.732,0.732,1.931,0.732,2.662,0l11.642-11.647C345.184,132.073,345.184,130.874,344.452,130.142z"/>
								</g>
							</g>
						</g>
					</g>
				</g>
			</g>
		</g>
	</g>
	<g>
		<g>
			<circle style="fill:#FFFFFF;stroke:#51AE43;stroke-width:3;stroke-miterlimit:10;" cx="500" cy="100" r="75"/>
		</g>
		<g>
			<g>
				<g>
					<g>
						<g>
							<g>
								<g>
									<path style="fill:#E8E7E7;" d="M539.811,141.225c0,2.075-1.699,3.775-3.774,3.775h-72.074
										c-2.074,0-3.774-1.699-3.774-3.775v-82.45c0-2.075,1.699-3.775,3.774-3.775h72.074c2.074,0,3.774,1.699,3.774,3.775
										V141.225z"/>
								</g>
							</g>
						</g>
					</g>
				</g>
			</g>
			<g>
				<g>
					<g>
						<g>
							<g>
								<g>
									<path style="fill:#7F8C8D;" d="M536.037,55h-72.074c-2.074,0-3.774,1.699-3.774,3.775v31.068h79.622V58.775
										C539.811,56.699,538.111,55,536.037,55z"/>
								</g>
							</g>
						</g>
					</g>
				</g>
			</g>
			<g>
				<g>
					<g>
						<g>
							<g>
								<g>
									<path style="fill:#FFFFFF;" d="M532.13,80.644c0,1.039-0.849,1.887-1.887,1.887h-60.7c-1.037,0-1.887-0.848-1.887-1.887
										V63.455c0-1.039,0.85-1.887,1.887-1.887h60.7c1.038,0,1.887,0.848,1.887,1.887V80.644z"/>
								</g>
							</g>
						</g>
					</g>
				</g>
			</g>
			<g>
				<g>
					<g>
						<g>
							<g>
								<g>
									<path style="fill:#51AE43;" d="M525.475,64.358L525.475,64.358h-5.372c-0.131,0-0.255,0.025-0.369,0.074
										c-1.147,0.184-2.04,1.139-2.04,2.337v10.404c0,1.197,0.893,2.152,2.04,2.337c0.114,0.047,0.238,0.073,0.369,0.073h5.372
										h0.001c1.33,0,2.409-1.08,2.409-2.41V66.768C527.885,65.438,526.805,64.358,525.475,64.358z M525.998,77.172
										c0,0.283-0.24,0.523-0.522,0.523h-0.001h-5.372c-0.282,0-0.522-0.24-0.522-0.523V66.768c0-0.284,0.24-0.524,0.522-0.524
										h5.372h0.001c0.282,0,0.522,0.24,0.522,0.524V77.172z"/>
								</g>
							</g>
						</g>
					</g>
				</g>
			</g>
			<g>
				<g>
					<g>
						<g>
							<g>
								<g>
									<g>
										<path style="fill:#51AE43;" d="M515.14,99.193c0-1.039,0.851-1.887,1.887-1.887h7.069c1.037,0,1.887,0.848,1.887,1.887
											v7.069c0,1.035-0.85,1.887-1.887,1.887h-7.069c-1.036,0-1.887-0.852-1.887-1.887V99.193z"/>
									</g>
								</g>
							</g>
						</g>
					</g>
				</g>
			</g>
			<g>
				<g>
					<g>
						<g>
							<g>
								<g>
									<g>
										<path style="fill:#CCCBCB;" d="M494.578,99.193c0-1.039,0.85-1.887,1.887-1.887h7.069c1.038,0,1.887,0.848,1.887,1.887
											v7.069c0,1.035-0.849,1.887-1.887,1.887h-7.069c-1.037,0-1.887-0.852-1.887-1.887V99.193z"/>
									</g>
								</g>
							</g>
						</g>
					</g>
				</g>
			</g>
			<g>
				<g>
					<g>
						<g>
							<g>
								<g>
									<g>
										<path style="fill:#CCCBCB;" d="M474.017,99.193c0-1.039,0.849-1.887,1.887-1.887h7.069c1.037,0,1.887,0.848,1.887,1.887
											v7.069c0,1.035-0.85,1.887-1.887,1.887h-7.069c-1.038,0-1.887-0.852-1.887-1.887V99.193z"/>
									</g>
								</g>
							</g>
						</g>
					</g>
				</g>
			</g>
			<g>
				<g>
					<g>
						<g>
							<g>
								<g>
									<g>
										<path style="fill:#CCCBCB;" d="M494.578,115.457c0-1.039,0.85-1.888,1.887-1.888h7.069c1.038,0,1.887,0.849,1.887,1.888
											v7.068c0,1.036-0.849,1.888-1.887,1.888h-7.069c-1.037,0-1.887-0.852-1.887-1.888V115.457z"/>
									</g>
								</g>
							</g>
						</g>
					</g>
				</g>
			</g>
			<g>
				<g>
					<g>
						<g>
							<g>
								<g>
									<g>
										<path style="fill:#CCCBCB;" d="M474.017,115.457c0-1.039,0.849-1.888,1.887-1.888h7.069c1.037,0,1.887,0.849,1.887,1.888
											v7.068c0,1.036-0.85,1.888-1.887,1.888h-7.069c-1.038,0-1.887-0.852-1.887-1.888V115.457z"/>
									</g>
								</g>
							</g>
						</g>
					</g>
				</g>
			</g>
			<g>
				<g>
					<g>
						<g>
							<g>
								<g>
									<g>
										<path style="fill:#CCCBCB;" d="M494.578,131.717c0-1.039,0.85-1.887,1.887-1.887h7.069c1.038,0,1.887,0.848,1.887,1.887
											v7.069c0,1.036-0.849,1.887-1.887,1.887h-7.069c-1.037,0-1.887-0.851-1.887-1.887V131.717z"/>
									</g>
								</g>
							</g>
						</g>
					</g>
				</g>
			</g>
			<g>
				<g>
					<g>
						<g>
							<g>
								<g>
									<g>
										<path style="fill:#CCCBCB;" d="M515.14,115.457c0-1.039,0.851-1.888,1.887-1.888h7.069c1.037,0,1.887,0.849,1.887,1.888
											v7.068c0,1.036-0.85,1.888-1.887,1.888h-7.069c-1.036,0-1.887-0.852-1.887-1.888V115.457z"/>
									</g>
								</g>
							</g>
						</g>
					</g>
				</g>
			</g>
			<g>
				<g>
					<g>
						<g>
							<g>
								<g>
									<g>
										<path style="fill:#CCCBCB;" d="M515.14,131.717c0-1.039,0.851-1.887,1.887-1.887h7.069c1.037,0,1.887,0.848,1.887,1.887
											v7.069c0,1.036-0.85,1.887-1.887,1.887h-7.069c-1.036,0-1.887-0.851-1.887-1.887V131.717z"/>
									</g>
								</g>
							</g>
						</g>
					</g>
				</g>
			</g>
			<g>
				<g>
					<g>
						<g>
							<g>
								<g>
									<g>
										<path style="fill:#CCCBCB;" d="M474.017,131.717c0-1.039,0.849-1.887,1.887-1.887h7.069c1.037,0,1.887,0.848,1.887,1.887
											v7.069c0,1.036-0.85,1.887-1.887,1.887h-7.069c-1.038,0-1.887-0.851-1.887-1.887V131.717z"/>
									</g>
								</g>
							</g>
						</g>
					</g>
				</g>
			</g>
			<g>
				<g>
					<g>
						<g>
							<g>
								<g>
									<rect x="460.189" y="89.894" style="fill:#CCCBCB;" width="79.622" height="3.118"/>
								</g>
							</g>
						</g>
					</g>
				</g>
			</g>
		</g>
	</g>
</g>
</svg>
